<?xml version="1.0" encoding="utf-8"?>
<!-- Generator: Adobe Illustrator 24.0.0, SVG Export Plug-In . SVG Version: 6.00 Build 0)  -->
<svg version="1.1" id="Layer_1" xmlns="http://www.w3.org/2000/svg" xmlns:xlink="http://www.w3.org/1999/xlink" x="0px" y="0px"
	 viewBox="0 0 600 400" style="enable-background:new 0 0 600 400;" xml:space="preserve">
<style type="text/css">
	.st0{fill:url(#SVGID_1_);}
	.st1{fill:url(#SVGID_2_);}
	.st2{fill:#343C55;}
</style>
<g>
	<linearGradient id="SVGID_1_" gradientUnits="userSpaceOnUse" x1="76.5175" y1="157.1758" x2="150.185" y2="242.0157">
		<stop  offset="0" style="stop-color:#2A78FE"/>
		<stop  offset="1" style="stop-color:#C42BFF"/>
	</linearGradient>
	<path class="st0" d="M109.2,167.8l17.1,23.8V166v-12.5c0-6-4.9-10.9-10.9-10.9H78.5c-6,0-10.9,4.9-10.9,10.9v54.4
		c0,6,4.9,10.9,10.9,10.9h7.6L86,158.4h16.4L109.2,167.8z"/>
	<linearGradient id="SVGID_2_" gradientUnits="userSpaceOnUse" x1="85.8365" y1="149.0839" x2="159.504" y2="233.9238">
		<stop  offset="0" style="stop-color:#2A78FE"/>
		<stop  offset="1" style="stop-color:#C42BFF"/>
	</linearGradient>
	<path class="st1" d="M152.1,166h-7.6l0,58.3h-16l-5.9-8.2l-18.3-25.3v28v12.5c0,6,4.9,10.9,10.9,10.9h36.9c6,0,10.9-4.9,10.9-10.9
		v-54.4C163,170.9,158.1,166,152.1,166z"/>
</g>
<g>
	<path class="st2" d="M212.7,215.5L195,187.2l-0.2,0.1l0.3,28.2h-11.4V169H194l18,29.3l0.1-0.1l-0.5-29.1H223v46.5H212.7z"/>
	<path class="st2" d="M264.1,200.5H238c0.7,4.4,3.4,6.6,8.2,6.6c2.5,0,4.6-1.1,6.4-3.3h10.7c-1.6,3.6-3.8,6.5-6.7,8.7
		c-3.1,2.3-6.5,3.4-10.3,3.4c-5.1,0-9.4-1.8-13-5.4c-3.6-3.6-5.4-7.9-5.4-13c0-5.1,1.8-9.5,5.3-13.2c3.6-3.7,7.9-5.6,13-5.6
		c5.3,0,9.7,1.9,13.2,5.6c3.5,3.7,5.2,8.2,5.2,13.5C264.4,198.7,264.3,199.6,264.1,200.5z M254,193.4c-0.9-4-3.5-6-7.9-6
		s-7.1,2-7.9,6H254z"/>
	<path class="st2" d="M301.2,210.5c-3.6,3.5-8.1,5.3-13.4,5.3c-5.4,0-9.8-1.8-13.4-5.3c-3.6-3.5-5.4-7.9-5.4-13.3
		c0-5.3,1.8-9.8,5.4-13.3c3.6-3.5,8-5.3,13.4-5.3c5.4,0,9.8,1.8,13.4,5.3c3.6,3.5,5.4,7.9,5.4,13.3
		C306.6,202.6,304.8,207,301.2,210.5z M293.8,191.1c-1.6-1.8-3.6-2.6-6-2.6c-2.4,0-4.4,0.9-6,2.6c-1.6,1.7-2.4,3.8-2.4,6.2
		c0,2.4,0.8,4.5,2.4,6.2c1.6,1.7,3.6,2.6,6,2.6c2.4,0,4.4-0.9,6-2.6c1.6-1.7,2.4-3.8,2.4-6.2C296.1,194.9,295.4,192.8,293.8,191.1z"
		/>
	<path class="st2" d="M381.8,189.9c-2.7,0.1-4.6,0.5-5.8,1.2c-1.6,1-2.4,2.7-2.4,5.2v19.2h-10.4v-34.9h9.8v3.7h0.2
		c1.7-3.3,4.6-4.9,8.7-4.9V189.9z"/>
	<path class="st2" d="M400.1,188.5v27h-10.4v-27h-5.2v-7.9h5.2V169h10.4v11.6h5v7.9H400.1z"/>
	<path class="st2" d="M411.2,176.9V169h10.4v7.9H411.2z M411.2,215.5v-34.9h10.4v34.9H411.2z"/>
	<path class="st2" d="M450.6,212.9c-2.7,2-5.9,3-9.8,3c-3.8,0-7-1-9.5-2.9c-2.7-2.1-4.3-5-4.7-8.7H437c0.3,2.1,1.6,3.2,4,3.2
		c0.9,0,1.7-0.2,2.4-0.7c0.8-0.5,1.2-1.2,1.2-2.1c0-1.1-0.6-2-1.7-2.7l-1.5-0.7l-6-2.2c-2.4-0.9-4.3-2-5.7-3.3
		c-1.7-1.6-2.6-3.6-2.6-5.8c0-3.5,1.4-6.3,4.2-8.5c2.6-2,5.7-3,9.3-3c3.7,0,6.7,0.9,9.1,2.7c2.6,1.9,4,4.7,4.3,8.3h-10.3
		c-0.1-1.8-1.1-2.6-3.3-2.6c-2,0-3,0.8-3,2.3c0,1.2,0.9,2.1,2.8,2.9c0.6,0.3,1.5,0.6,2.8,1c0.1,0,0.2,0.1,0.4,0.1l2.8,0.9
		c1.2,0.4,2.3,0.8,3.2,1.3c1.1,0.6,2,1.2,2.8,1.9c1.8,1.7,2.8,3.9,2.8,6.7C455,207.8,453.5,210.7,450.6,212.9z"/>
	<path class="st2" d="M474.3,188.5v27h-10.4v-27h-5.2v-7.9h5.2V169h10.4v11.6h5v7.9H474.3z"/>
	<path class="st2" d="M483.8,176.9V169h10.4v7.9H483.8z M483.8,215.5v-34.9h10.4v34.9H483.8z"/>
	<path class="st2" d="M536,201.5c-1,4.3-3.2,7.7-6.6,10.4c-3.4,2.7-7.3,4-11.7,4c-5.2,0-9.6-1.8-13.2-5.4c-3.6-3.6-5.4-8-5.4-13.2
		c0-5.2,1.8-9.6,5.3-13.1c3.6-3.6,7.9-5.4,13.1-5.4c4.5,0,8.5,1.3,11.9,4c3.5,2.7,5.7,6.3,6.6,10.7h-10.6c-1.5-3.3-4.1-4.9-7.8-4.9
		c-2.4,0-4.4,0.9-5.9,2.7c-1.4,1.7-2.1,3.7-2.1,6.2c0,2.5,0.7,4.6,2.2,6.3c1.6,1.7,3.6,2.6,6,2.6c3.4,0,5.9-1.5,7.6-4.6H536z"/>
	<polygon class="st2" points="332,207.1 329.4,215.4 354.7,215.4 353.6,207.1 	"/>
	<path class="st2" d="M327.1,208.6"/>
	<polygon class="st2" points="338.8,168.8 329.5,168.8 310.8,215.4 323.6,215.4 324.7,212.4 334,183.7 334.1,183.3 334.3,183.3 
		336.1,189.4 336.1,189.4 344,214 344,214 344.5,215.4 357.3,215.4 	"/>
</g>
</svg>
