<?xml version="1.0" encoding="utf-8"?>
<!-- Generator: Adobe Illustrator 24.0.0, SVG Export Plug-In . SVG Version: 6.00 Build 0)  -->
<svg version="1.1" id="Layer_1" xmlns="http://www.w3.org/2000/svg" xmlns:xlink="http://www.w3.org/1999/xlink" x="0px" y="0px"
	 viewBox="0 0 493 117" style="enable-background:new 0 0 493 117;" xml:space="preserve">
<style type="text/css">
	.st0{fill:#FFFFFF;}
</style>
<g>
	<g>
		<path class="st0" d="M52.2,34.8l17.1,23.8V33V20.5c0-6-4.9-10.9-10.9-10.9H21.5c-6,0-10.9,4.9-10.9,10.9v54.4
			c0,6,4.9,10.9,10.9,10.9h7.6L29,25.4h16.4L52.2,34.8z"/>
		<path class="st0" d="M95.1,33h-7.6l0,58.3h-16l-5.9-8.2L47.3,57.8v28v12.5c0,6,4.9,10.9,10.9,10.9h36.9c6,0,10.9-4.9,10.9-10.9
			V43.9C106,37.9,101.1,33,95.1,33z"/>
	</g>
	<g>
		<path class="st0" d="M155.7,82.5L138,54.2l-0.2,0.1l0.3,28.2h-11.4V36H137l18,29.3l0.1-0.1L154.6,36H166v46.5H155.7z"/>
		<path class="st0" d="M207.1,67.5H181c0.7,4.4,3.4,6.6,8.2,6.6c2.5,0,4.6-1.1,6.4-3.3h10.7c-1.6,3.6-3.8,6.5-6.7,8.7
			c-3.1,2.3-6.5,3.4-10.3,3.4c-5.1,0-9.4-1.8-13-5.4c-3.6-3.6-5.4-7.9-5.4-13c0-5.1,1.8-9.5,5.3-13.2c3.6-3.7,7.9-5.6,13-5.6
			c5.3,0,9.7,1.9,13.2,5.6c3.5,3.7,5.2,8.2,5.2,13.5C207.4,65.7,207.3,66.6,207.1,67.5z M197,60.4c-0.9-4-3.5-6-7.9-6s-7.1,2-7.9,6
			H197z"/>
		<path class="st0" d="M244.2,77.5c-3.6,3.5-8.1,5.3-13.4,5.3c-5.4,0-9.8-1.8-13.4-5.3c-3.6-3.5-5.4-7.9-5.4-13.3
			c0-5.3,1.8-9.8,5.4-13.3c3.6-3.5,8-5.3,13.4-5.3c5.4,0,9.8,1.8,13.4,5.3c3.6,3.5,5.4,7.9,5.4,13.3C249.6,69.6,247.8,74,244.2,77.5
			z M236.8,58.1c-1.6-1.8-3.6-2.6-6-2.6c-2.4,0-4.4,0.9-6,2.6c-1.6,1.7-2.4,3.8-2.4,6.2c0,2.4,0.8,4.5,2.4,6.2
			c1.6,1.7,3.6,2.6,6,2.6c2.4,0,4.4-0.9,6-2.6c1.6-1.7,2.4-3.8,2.4-6.2C239.1,61.9,238.4,59.8,236.8,58.1z"/>
		<path class="st0" d="M324.8,56.9c-2.7,0.1-4.6,0.5-5.8,1.2c-1.6,1-2.4,2.7-2.4,5.2v19.2h-10.4V47.6h9.8v3.7h0.2
			c1.7-3.3,4.6-4.9,8.7-4.9V56.9z"/>
		<path class="st0" d="M343.1,55.5v27h-10.4v-27h-5.2v-7.9h5.2V36h10.4v11.6h5v7.9H343.1z"/>
		<path class="st0" d="M354.2,43.9V36h10.4v7.9H354.2z M354.2,82.5V47.6h10.4v34.9H354.2z"/>
		<path class="st0" d="M393.6,79.9c-2.7,2-5.9,3-9.8,3c-3.8,0-7-1-9.5-2.9c-2.7-2.1-4.3-5-4.7-8.7H380c0.3,2.1,1.6,3.2,4,3.2
			c0.9,0,1.7-0.2,2.4-0.7c0.8-0.5,1.2-1.2,1.2-2.1c0-1.1-0.6-2-1.7-2.7l-1.5-0.7l-6-2.2c-2.4-0.9-4.3-2-5.7-3.3
			c-1.7-1.6-2.6-3.6-2.6-5.8c0-3.5,1.4-6.3,4.2-8.5c2.6-2,5.7-3,9.3-3c3.7,0,6.7,0.9,9.1,2.7c2.6,1.9,4,4.7,4.3,8.3h-10.3
			c-0.1-1.8-1.1-2.6-3.3-2.6c-2,0-3,0.8-3,2.3c0,1.2,0.9,2.1,2.8,2.9c0.6,0.3,1.5,0.6,2.8,1c0.1,0,0.2,0.1,0.4,0.1l2.8,0.9
			c1.2,0.4,2.3,0.8,3.2,1.3c1.1,0.6,2,1.2,2.8,1.9c1.8,1.7,2.8,3.9,2.8,6.7C398,74.8,396.5,77.7,393.6,79.9z"/>
		<path class="st0" d="M417.3,55.5v27h-10.4v-27h-5.2v-7.9h5.2V36h10.4v11.6h5v7.9H417.3z"/>
		<path class="st0" d="M426.8,43.9V36h10.4v7.9H426.8z M426.8,82.5V47.6h10.4v34.9H426.8z"/>
		<path class="st0" d="M479,68.5c-1,4.3-3.2,7.7-6.6,10.4c-3.4,2.7-7.3,4-11.7,4c-5.2,0-9.6-1.8-13.2-5.4c-3.6-3.6-5.4-8-5.4-13.2
			c0-5.2,1.8-9.6,5.3-13.1c3.6-3.6,7.9-5.4,13.1-5.4c4.5,0,8.5,1.3,11.9,4c3.5,2.7,5.7,6.3,6.6,10.7h-10.6c-1.5-3.3-4.1-4.9-7.8-4.9
			c-2.4,0-4.4,0.9-5.9,2.7c-1.4,1.7-2.1,3.7-2.1,6.2c0,2.5,0.7,4.6,2.2,6.3c1.6,1.7,3.6,2.6,6,2.6c3.4,0,5.9-1.5,7.6-4.6H479z"/>
		<polygon class="st0" points="275,74.1 272.4,82.4 297.7,82.4 296.6,74.1 		"/>
		<path class="st0" d="M270.1,75.6"/>
		<polygon class="st0" points="281.8,35.8 272.5,35.8 253.8,82.4 266.6,82.4 267.7,79.4 277,50.7 277.1,50.3 277.3,50.3 279.1,56.4 
			279.1,56.4 287,81 287,81 287.5,82.4 300.3,82.4 		"/>
	</g>
</g>
</svg>
